' *******************************************************************************
' Copyright (c) 2026 Contributors to the Eclipse Foundation
'
' See the NOTICE file(s) distributed with this work for additional
' information regarding copyright ownership.
'
' This program and the accompanying materials are made available under the
' terms of the Apache License Version 2.0 which is available at
' https://www.apache.org/licenses/LICENSE-2.0
'
' SPDX-License-Identifier: Apache-2.0
' *******************************************************************************

@startuml mw_log_file_backend

' Classes
class "mw::log::Recorder" as Recorder {
  + StartRecord(ctx:std::string_view, ll:LogLevel): score::cpp::optional<SlotHandle>
  + StopRecord(slot:SlotHandle&)
  + Log(data: T): void
  __
  - backend:unique_ptr<mw::log::Backend>
}

interface "mw::log::detail::Backend" as Backend {
  + ReserveSlot(): score::cpp::optional<SlotHandle>
  + FlushSlot(const SlotHandle&)
  + GetLogRecord(const SlotHandle&): LogRecord&
}

class "mw::log::detail::FileOutputBackend" as FileOutputBackend {
  - buffer_allocator_: std::unique_ptr<CircularAllocator<LogRecord>>
  - slot_drainer_:SlotDrainer
  __
  + FileOutputBackend(std::unique_ptr<IMessageBuilder>,\n  const std::int32_t,\n  std::unique_ptr<CircularAllocator<LogRecord>>,\n  std::unique_ptr<score::os::Fcntl>)
  + ReserveSlot():score::cpp::optional<SlotHandle>
  + FlushSlot(const SlotHandle&):void
  + GetLogRecord(const SlotHandle&): LogRecord&
}

class "mw::log::detail::SlotDrainer" as SlotDrainer {
  - allocator_: std::unique_ptr<CircularAllocator<LogRecord>>&
  - message_builder_:std::unique_ptr<IMessageBuilder>
  - context_mutex_:std::mutex
  - circular_buffer_:score::cpp::circular_buffer<SlotHandle, kMaxCircularBufferSize>
  - current_slot_:score::cpp::optional<std::reference_wrapper<const SlotHandle>>
  - non_blocking_writer_: NonBlockingWriter
  - limit_slots_in_one_cycle_: const std::size_t
  __
  + SlotDrainer(std::unique_ptr<IMessageBuilder>,\n  std::unique_ptr<CircularAllocator<LogRecord>>&,\n  const std::int32_t,\n  const std::size_t,\n  std::unique_ptr<score::os::Unistd>)
  + PushBack(const SlotHandle&):void
  + Flush():void
  __
  - TryFlushSlots(): score::cpp::expected<FlushResult, score::mw::log::detail::Error>
  - TryFlushSpans(): score::cpp::expected<FlushResult, score::mw::log::detail::Error>
  - MoreSlotsAvailableAndLoaded():bool
  - MoreSpansAvailableAndLoaded():bool
}

class "mw::log::detail::NonBlockingWriter" as NonBlockingWriter {
  - unistd_: std::unique_ptr<score::os::Unistd>
  - file_handle_: std::int32_t
  - number_of_flushed_bytes_: uint64_t
  - buffer_: score::cpp::span<const std::uint8_t>
  - buffer_flushed_: Result
  - max_chunk_size_: std::size_t
  __
  + NonBlockingWriter(const std::int32_t, std::size_t, std::unique_ptr<score::os::Unistd>)
  + FlushIntoFile(): score::cpp::expected<Result, score::mw::log::detail::Error>
  + SetSpan(const score::cpp::span<const std::uint8_t>&): void
  + GetMaxChunkSize(): std::size_t
  __
  - InternalFlush(const uint64_t): score::cpp::expected<ssize_t, score::os::Error>
}

interface "mw::log::detail::IMessageBuilder" as IMessageBuilder {
  + GetNextSpan() : score::cpp::optional<score::cpp::span<const std::uint8_t>>
  + SetNextMessage(LogRecord&): void
}

class "mw::log::detail::DltMessageBuilder" as DltMessageBuilder {
  + DltMessageBuilder(ecu_id)
  + GetNextSpan() : score::cpp::optional<score::cpp::span<const std::uint8_t>>
  + SetNextMessage(LogRecord&): void
}

class "mw::log::detail::TextMessageBuilder" as TextMessageBuilder {
  + TextMessageBuilder(app_id, ecu_id)
  + GetNextSpan() : score::cpp::optional<score::cpp::span<const std::uint8_t>>
  + SetNextMessage(log_record:LogRecord&): void
}

class "mw::log::detail::CircularAllocator<T>" as CircularAllocator {
  - claimed_sequence_:std::atomic<std::size_t>
  - buffer_:std::vector<Slot<T>>
  __
  + CircularAllocator(std::size_t, const T&)
  + AcquireSlotToWrite(): score::cpp::optional<std::size_t>
  + GetUnderlyingBufferFor(std::size_t): T&
  + ReleaseSlot(std::size_t):void
  + GetUsedCount():size_t
}

class "score::cpp::circular_buffer<T=SlotHandle,MaxSize>" as CircularBuffer {
}

class "mw::log::detail::Slot<T>" as Slot {
  + data: T
  + in_use: std::atomic<bool>
}

class "mw::log::detail::LogRecord" as LogRecord #Orange {
  - logEntry_:LogEntry
  - verbosePayload_:VerbosePayload
  __
  LogRecord(const std::size_t)
  getLogEntry(): LogEntry&
  getLogEntry(): const LogEntry&
  getVerbosePayload(): VerbosePayload&
  getVerbosePayload(): const VerbosePayload&
}

class "VerbosePayload" as VerbosePayload {
}

class "LoggingIdentifier" as LoggingIdentifier {
}

class "mw::log::detail::BackendLogMock" as BackendLogMock #Pink {
  + ReserveSlot(): score::cpp::optional<SlotHandle>
  + FlushSlot(const SlotHandle&)
  + GetLogRecord(const SlotHandle&): LogRecord&
}

class "OSAL::Unistd" as OsalUnistd1 {
}

class "OSAL::Unistd" as OsalUnistd2 {
}

class "OSAL::fcntl" as Fcntl {
}

' Relationships
Recorder *-- Backend
Backend <|.. FileOutputBackend
Backend <|.. BackendLogMock

FileOutputBackend *-- SlotDrainer
FileOutputBackend *-- CircularAllocator

SlotDrainer *-- NonBlockingWriter
SlotDrainer *-- CircularBuffer
SlotDrainer *-- CircularAllocator
SlotDrainer *-- IMessageBuilder

NonBlockingWriter *-- OsalUnistd1
NonBlockingWriter ..> OsalUnistd1 : write

IMessageBuilder <|-- DltMessageBuilder
IMessageBuilder <|-- TextMessageBuilder

CircularAllocator "0..n" *-- Slot
CircularAllocator ..> CircularAllocator : GetUnderlyingBufferFor()\nReleaseSlot()

FileOutputBackend ..> CircularAllocator : AcquireSlotToWrite()\nGetUnderlyingBufferFor()
SlotDrainer ..> CircularAllocator : GetUnderlyingBufferFor()\nReleaseSlot()

CircularBuffer ..> CircularAllocator : Created based on CircularAllocatorSize

DltMessageBuilder *-- LoggingIdentifier
DltMessageBuilder *-- VerbosePayload
TextMessageBuilder *-- LoggingIdentifier
TextMessageBuilder *-- VerbosePayload

Recorder ..> Fcntl : open\nSetNonBlocking / fctrl call
Recorder ..> OsalUnistd2 : close

note right of NonBlockingWriter : Inject OSAL mock by constructor with default value
note right of FileOutputBackend : Inject NonBlockingWriter, OSAL mock, configure buffer size
note right of IMessageBuilder : Insert data and verify outcome
note top of CircularBuffer : Using score::cpp::circular_buffer, not tested
note bottom of CircularBuffer : By design, dropped messages excluded as SlotAllocator size < CircularBuffer
note right of LogRecord : Tested in data_router
note bottom of FileOutputBackend : Test glue code, inject SlotDrainer with mocked OSAL
note bottom of BackendLogMock : Mock implementation

@enduml
